<svg xmlns="http://www.w3.org/2000/svg" viewBox="0 0 1100 620" width="1100" height="620">
<defs>
  <marker id="arr-r" markerWidth="8" markerHeight="6" refX="8" refY="3" orient="auto">
    <path d="M0,0 L8,3 L0,6" fill="none" stroke="#cc0000" stroke-width="0.6"/>
  </marker>
  <marker id="arr-l" markerWidth="8" markerHeight="6" refX="0" refY="3" orient="auto">
    <path d="M8,0 L0,3 L8,6" fill="none" stroke="#cc0000" stroke-width="0.6"/>
  </marker>
  <marker id="arr-u" markerWidth="6" markerHeight="8" refX="3" refY="0" orient="auto">
    <path d="M0,8 L3,0 L6,8" fill="none" stroke="#cc0000" stroke-width="0.6"/>
  </marker>
  <marker id="arr-d" markerWidth="6" markerHeight="8" refX="3" refY="8" orient="auto">
    <path d="M0,0 L3,8 L6,0" fill="none" stroke="#cc0000" stroke-width="0.6"/>
  </marker>
</defs>
<style>
  .wall    { fill: #c0c0cc; stroke: #1a1a2e; stroke-width: 1.4; stroke-linejoin: round; }
  .wall-nc { fill: #b8b8c8; stroke: #1a1a2e; stroke-width: 1.4; stroke-linejoin: round; }
  .wall-bt { fill: #b0b0c0; stroke: #1a1a2e; stroke-width: 1.4; stroke-linejoin: round; }
  .fin     { fill: #a8a8b8; stroke: #1a1a2e; stroke-width: 1.6; stroke-linejoin: round; }
  .inner   { fill: none; stroke: #555; stroke-width: 0.8; stroke-dasharray: 6,3; }
  .cl      { fill: none; stroke: #666; stroke-width: 0.5; stroke-dasharray: 12,3,3,3; }
  .sep     { fill: none; stroke: #1a1a2e; stroke-width: 0.5; stroke-dasharray: 1,2; }
  .dim     { fill: none; stroke: #cc0000; stroke-width: 0.5; }
  .ext     { fill: none; stroke: #cc0000; stroke-width: 0.3; }
  .dt      { font-family: "Courier New", monospace; font-size: 10px; fill: #cc0000; text-anchor: middle; }
  .dt-s    { font-family: "Courier New", monospace; font-size: 8.5px; fill: #cc0000; text-anchor: middle; }
  .lbl     { font-family: "Helvetica Neue", Helvetica, Arial, sans-serif; font-size: 10px; fill: #1a1a2e; text-anchor: middle; font-weight: 600; }
  .lbl-s   { font-family: "Helvetica Neue", Helvetica, Arial, sans-serif; font-size: 8px; fill: #444; text-anchor: middle; }
  .title   { font-family: "Helvetica Neue", Helvetica, Arial, sans-serif; font-size: 14px; fill: #1a1a2e; font-weight: 700; letter-spacing: 1px; }
  .sub     { font-family: "Helvetica Neue", Helvetica, Arial, sans-serif; font-size: 10px; fill: #555; }
  .tb-label{ font-family: "Helvetica Neue", Helvetica, Arial, sans-serif; font-size: 8px; fill: #333; }
  .tb-val  { font-family: "Courier New", monospace; font-size: 8px; fill: #1a1a2e; }
</style>

<rect width="1100" height="620" fill="#fafafa"/>
<rect x="6" y="6" width="1088" height="608" fill="none" stroke="#1a1a2e" stroke-width="2" rx="1"/>
<line x1="6" y1="48" x2="1094" y2="48" stroke="#1a1a2e" stroke-width="0.8"/>

<text x="550" y="28" class="title" text-anchor="middle">BLACK BRANT 6&#x22; SCALE &#x2014; GENERAL ARRANGEMENT</text>
<text x="550" y="42" class="sub" text-anchor="middle">Chris Pedder &#x2014; TRA 27990 &#x2014; Scale 1:3 (approx) &#x2014; All dimensions in millimetres</text>

<!-- Centreline -->
<line x1="40" y1="280" x2="1040" y2="280" class="cl"/>
<text x="28" y="278" font-family="Helvetica" font-size="7" fill="#666" text-anchor="middle">C</text>
<text x="28" y="286" font-family="Helvetica" font-size="7" fill="#666" text-anchor="middle">L</text>

<!-- NOSE CONE (5:1 conical — straight taper from tip to base) -->
<polygon points="55,280 331,254 331,306" class="wall-nc"/>
<!-- Nose inner wall lines (wall thickness ~3.2mm = ~1px at this scale) -->
<line x1="62" y1="280" x2="331" y2="256" stroke="#888" stroke-width="0.4"/>
<line x1="62" y1="280" x2="331" y2="304" stroke="#888" stroke-width="0.4"/>
<!-- Tracker bay inner tube -->
<line x1="147" y1="266.5" x2="331" y2="266.5" class="inner"/>
<line x1="147" y1="293.5" x2="331" y2="293.5" class="inner"/>

<!-- PAYLOAD TUBE -->
<rect x="331" y="254" width="242" height="2" fill="#c0c0cc" stroke="none"/>
<rect x="331" y="304" width="242" height="2" fill="#c0c0cc" stroke="none"/>
<line x1="331" y1="254" x2="573" y2="254" stroke="#1a1a2e" stroke-width="1.4"/>
<line x1="331" y1="306" x2="573" y2="306" stroke="#1a1a2e" stroke-width="1.4"/>
<line x1="331" y1="256" x2="573" y2="256" stroke="#888" stroke-width="0.4"/>
<line x1="331" y1="304" x2="573" y2="304" stroke="#888" stroke-width="0.4"/>
<line x1="331" y1="249" x2="331" y2="311" stroke="#1a1a2e" stroke-width="0.8"/>

<!-- E-bay coupler -->
<rect x="517" y="255.5" width="111" height="49" rx="0.5" fill="none" stroke="#555" stroke-width="0.8" stroke-dasharray="6,3"/>
<text x="555" y="283" class="lbl-s" fill="#555">E-BAY</text>
<line x1="517" y1="255.5" x2="517" y2="304.5" stroke="#555" stroke-width="1.2"/>
<text x="425" y="283" class="lbl-s" fill="#999" font-style="italic">Drogue</text>

<!-- BOOSTER TUBE -->
<rect x="573" y="254" width="415" height="2" fill="#c0c0cc" stroke="none"/>
<rect x="573" y="304" width="415" height="2" fill="#c0c0cc" stroke="none"/>
<line x1="573" y1="254" x2="988" y2="254" stroke="#1a1a2e" stroke-width="1.4"/>
<line x1="573" y1="306" x2="988" y2="306" stroke="#1a1a2e" stroke-width="1.4"/>
<line x1="573" y1="256" x2="988" y2="256" stroke="#888" stroke-width="0.4"/>
<line x1="573" y1="304" x2="988" y2="304" stroke="#888" stroke-width="0.4"/>
<text x="700" y="283" class="lbl-s" fill="#999" font-style="italic">Main</text>

<!-- Motor mount tube -->
<line x1="830" y1="262.7" x2="1020" y2="262.7" class="inner"/>
<line x1="830" y1="297.3" x2="1020" y2="297.3" class="inner"/>
<text x="925" y="283" class="lbl-s" fill="#555">Motor Mount</text>

<!-- Centering rings -->
<line x1="831" y1="256" x2="831" y2="262.7" stroke="#666" stroke-width="1.5"/>
<line x1="831" y1="297.3" x2="831" y2="304" stroke="#666" stroke-width="1.5"/>
<line x1="882" y1="256" x2="882" y2="262.7" stroke="#666" stroke-width="1.5"/>
<line x1="882" y1="297.3" x2="882" y2="304" stroke="#666" stroke-width="1.5"/>
<line x1="981" y1="256" x2="981" y2="262.7" stroke="#666" stroke-width="1.5"/>
<line x1="981" y1="297.3" x2="981" y2="304" stroke="#666" stroke-width="1.5"/>

<!-- TRANSITION (BOAT TAIL) -->
<path d="M 988,254 L 1027,259 L 1027,301 L 988,306 Z" class="wall-bt"/>
<line x1="1027" y1="259" x2="1027" y2="301" stroke="#1a1a2e" stroke-width="1.8"/>

<!-- FINS -->
<path d="M 882,254 L 1003,180 L 1055,180 L 1040,241 L 1026,254 Z" class="fin"/>
<path d="M 882,306 L 1003,380 L 1055,380 L 1040,319 L 1026,306 Z" class="fin"/>

<!-- Separation joints -->
<line x1="331" y1="249" x2="331" y2="311" class="sep" stroke-width="0.8"/>
<circle cx="331" cy="249" r="1.5" fill="#1a1a2e"/>
<circle cx="331" cy="311" r="1.5" fill="#1a1a2e"/>
<line x1="573" y1="249" x2="573" y2="311" class="sep" stroke-width="0.8"/>
<circle cx="573" cy="249" r="1.5" fill="#1a1a2e"/>
<circle cx="573" cy="311" r="1.5" fill="#1a1a2e"/>

<!-- Rail buttons -->
<rect x="777" y="251" width="4" height="3" rx="0.5" fill="#666" stroke="#333" stroke-width="0.5"/>
<rect x="590" y="251" width="4" height="3" rx="0.5" fill="#666" stroke="#333" stroke-width="0.5"/>

<!-- CP / CG markers -->
<polygon points="783,311 777,323 789,323" fill="#d63031" stroke="#c0392b" stroke-width="0.5"/>
<text x="783" y="335" class="dt-s" fill="#d63031" font-weight="bold">CP 2140</text>
<polygon points="655,311 649,323 661,323" fill="#00b894" stroke="#00a884" stroke-width="0.5"/>
<text x="655" y="335" class="dt-s" fill="#00b894" font-weight="bold">CG 1764</text>
<line x1="655" y1="341" x2="783" y2="341" class="dim"/>
<line x1="655" y1="338" x2="655" y2="344" class="dim"/>
<line x1="783" y1="338" x2="783" y2="344" class="dim"/>
<text x="719" y="352" class="dt-s" fill="#666">2.36 cal</text>

<!-- OVERALL LENGTH -->
<line x1="55" y1="210" x2="55" y2="250" class="ext"/>
<line x1="1027" y1="210" x2="1027" y2="255" class="ext"/>
<line x1="55" y1="215" x2="1027" y2="215" class="dim" marker-start="url(#arr-l)" marker-end="url(#arr-r)"/>
<text x="541" y="211" class="dt">2858</text>

<!-- Section lengths -->
<line x1="331" y1="225" x2="331" y2="250" class="ext"/>
<line x1="573" y1="225" x2="573" y2="250" class="ext"/>
<line x1="988" y1="225" x2="988" y2="250" class="ext"/>
<line x1="55" y1="230" x2="331" y2="230" class="dim" marker-start="url(#arr-l)" marker-end="url(#arr-r)"/>
<text x="193" y="226" class="dt-s">813</text>
<line x1="331" y1="230" x2="573" y2="230" class="dim" marker-start="url(#arr-l)" marker-end="url(#arr-r)"/>
<text x="452" y="226" class="dt-s">712</text>
<line x1="573" y1="230" x2="988" y2="230" class="dim" marker-start="url(#arr-l)" marker-end="url(#arr-r)"/>
<text x="781" y="226" class="dt-s">1219</text>
<line x1="988" y1="230" x2="1027" y2="230" class="dim" marker-start="url(#arr-l)" marker-end="url(#arr-r)"/>
<text x="1008" y="226" class="dt-s">114</text>

<!-- Diameter dimensions -->
<line x1="1040" y1="254" x2="1070" y2="254" class="ext"/>
<line x1="1040" y1="306" x2="1070" y2="306" class="ext"/>
<line x1="1065" y1="254" x2="1065" y2="306" class="dim" marker-start="url(#arr-u)" marker-end="url(#arr-d)"/>
<text x="1082" y="282" class="dt-s" text-anchor="start">&#x2300;155</text>

<line x1="1030" y1="259" x2="1048" y2="259" class="ext"/>
<line x1="1030" y1="301" x2="1048" y2="301" class="ext"/>
<line x1="1043" y1="259" x2="1043" y2="301" class="dim" marker-start="url(#arr-u)" marker-end="url(#arr-d)"/>
<text x="1043" y="313" class="dt-s">&#x2300;126</text>

<text x="925" y="267" class="dt-s" fill="#555" font-size="7">&#x2300;102</text>

<!-- Fin span -->
<line x1="1058" y1="180" x2="1080" y2="180" class="ext"/>
<line x1="1058" y1="254" x2="1080" y2="254" class="ext"/>
<line x1="1075" y1="180" x2="1075" y2="254" class="dim" marker-start="url(#arr-u)" marker-end="url(#arr-d)"/>
<text x="1075" y="174" class="dt-s">Span 217</text>

<!-- Section labels with leaders -->
<text x="193" y="395" class="lbl">NOSE CONE</text>
<text x="193" y="407" class="lbl-s">5:1 conical, G10 FG</text>
<line x1="193" y1="385" x2="193" y2="310" class="ext" stroke="#bbb"/>
<text x="452" y="395" class="lbl">PAYLOAD</text>
<text x="452" y="407" class="lbl-s">6&#x22; G10 FG tube</text>
<line x1="452" y1="385" x2="452" y2="310" class="ext" stroke="#bbb"/>
<text x="770" y="395" class="lbl">BOOSTER</text>
<text x="770" y="407" class="lbl-s">6&#x22; G10 FG tube</text>
<line x1="770" y1="385" x2="770" y2="310" class="ext" stroke="#bbb"/>
<text x="1008" y="395" class="lbl">BOAT TAIL</text>
<text x="1008" y="407" class="lbl-s">G10 transition</text>
<line x1="1008" y1="385" x2="1008" y2="310" class="ext" stroke="#bbb"/>

<!-- Separation labels -->
<text x="331" y="367" class="lbl-s" fill="#d63031">DROGUE SEP</text>
<text x="331" y="377" class="lbl-s" fill="#d63031" font-size="6.5">(3&#xd7; M3 shear pins)</text>
<line x1="331" y1="314" x2="331" y2="359" stroke="#d63031" stroke-width="0.4" stroke-dasharray="3,2"/>
<text x="573" y="367" class="lbl-s" fill="#d63031">MAIN SEP</text>
<text x="573" y="377" class="lbl-s" fill="#d63031" font-size="6.5">(3&#xd7; M3 shear pins)</text>
<line x1="573" y1="314" x2="573" y2="359" stroke="#d63031" stroke-width="0.4" stroke-dasharray="3,2"/>

<!-- Key specifications box -->
<rect x="240" y="435" width="540" height="105" fill="#f8f8fb" stroke="#ccc" stroke-width="0.5" rx="2"/>
<text x="510" y="451" class="lbl" font-size="9">KEY SPECIFICATIONS</text>
<text x="260" y="467" class="tb-label" text-anchor="start">Overall length:</text>
<text x="390" y="467" class="tb-val" text-anchor="start">2858 mm (284 cm)</text>
<text x="560" y="467" class="tb-label" text-anchor="start">Dry mass:</text>
<text x="660" y="467" class="tb-val" text-anchor="start">17.25 kg</text>
<text x="260" y="481" class="tb-label" text-anchor="start">Body diameter:</text>
<text x="390" y="481" class="tb-val" text-anchor="start">155 mm (6.1&#x22;)</text>
<text x="560" y="481" class="tb-label" text-anchor="start">Pad mass:</text>
<text x="660" y="481" class="tb-val" text-anchor="start">22.9 kg (with M1550)</text>
<text x="260" y="495" class="tb-label" text-anchor="start">Motor mount:</text>
<text x="390" y="495" class="tb-val" text-anchor="start">98 mm (75 mm adapter)</text>
<text x="560" y="495" class="tb-label" text-anchor="start">Max altitude:</text>
<text x="660" y="495" class="tb-val" text-anchor="start">2053 m</text>
<text x="260" y="509" class="tb-label" text-anchor="start">Stability margin:</text>
<text x="390" y="509" class="tb-val" text-anchor="start">2.36 cal (at launch)</text>
<text x="560" y="509" class="tb-label" text-anchor="start">Max velocity:</text>
<text x="660" y="509" class="tb-val" text-anchor="start">215 m/s (Mach 0.64)</text>
<text x="260" y="523" class="tb-label" text-anchor="start">Motor:</text>
<text x="390" y="523" class="tb-val" text-anchor="start">AeroTech M1550 (75/6400)</text>
<text x="560" y="523" class="tb-label" text-anchor="start">TWR:</text>
<text x="660" y="523" class="tb-val" text-anchor="start">6.9:1</text>

<!-- Title block -->
<rect x="830" y="550" width="258" height="58" fill="#f0f0f5" stroke="#1a1a2e" stroke-width="0.8"/>
<line x1="830" y1="565" x2="1088" y2="565" stroke="#1a1a2e" stroke-width="0.4"/>
<line x1="830" y1="580" x2="1088" y2="580" stroke="#1a1a2e" stroke-width="0.4"/>
<line x1="830" y1="594" x2="1088" y2="594" stroke="#1a1a2e" stroke-width="0.4"/>
<line x1="920" y1="550" x2="920" y2="608" stroke="#1a1a2e" stroke-width="0.4"/>
<text x="875" y="561" class="tb-label" text-anchor="middle">Project</text>
<text x="1004" y="561" class="tb-val" text-anchor="middle">Black Brant 6&#x22; Scale L3</text>
<text x="875" y="576" class="tb-label" text-anchor="middle">Drawn by</text>
<text x="1004" y="576" class="tb-val" text-anchor="middle">C. Pedder &#x2014; TRA 27990</text>
<text x="875" y="591" class="tb-label" text-anchor="middle">Scale</text>
<text x="1004" y="591" class="tb-val" text-anchor="middle">1:3 (approx)</text>
<text x="875" y="605" class="tb-label" text-anchor="middle">Sheet</text>
<text x="1004" y="605" class="tb-val" text-anchor="middle">1 of 1 &#x2014; General Arrangement</text>

<!-- Legend -->
<rect x="20" y="555" width="200" height="50" fill="#f8f8fb" stroke="#ccc" stroke-width="0.5" rx="2"/>
<line x1="35" y1="570" x2="55" y2="570" stroke="#555" stroke-width="0.8" stroke-dasharray="6,3"/>
<text x="62" y="573" class="tb-label" text-anchor="start">Internal / hidden feature</text>
<line x1="35" y1="583" x2="55" y2="583" stroke="#1a1a2e" stroke-width="0.5" stroke-dasharray="1,2"/>
<text x="62" y="586" class="tb-label" text-anchor="start">Separation joint</text>
<polygon points="35,595 29,601 41,601" fill="#d63031"/>
<text x="47" y="600" class="tb-label" text-anchor="start" fill="#d63031">CP</text>
<polygon points="80,595 74,601 86,601" fill="#00b894"/>
<text x="92" y="600" class="tb-label" text-anchor="start" fill="#00b894">CG (with motor)</text>
</svg>
